<?xml version="1.0" encoding="iso-8859-1"?>
<!-- Generator: Adobe Illustrator 19.0.0, SVG Export Plug-In . SVG Version: 6.00 Build 0)  -->
<svg version="1.1" id="Layer_1" xmlns="http://www.w3.org/2000/svg" xmlns:xlink="http://www.w3.org/1999/xlink" x="0px" y="0px"
	 viewBox="0 0 469.333 469.333" style="enable-background:new 0 0 469.333 469.333;" xml:space="preserve">
<g>
	<g>
		<path d="M448,0H21.333C9.542,0,0,9.552,0,21.333V448c0,11.781,9.542,21.333,21.333,21.333H448
			c11.792,0,21.333-9.552,21.333-21.333V21.333C469.333,9.552,459.792,0,448,0z M213.333,426.667H42.667v-96h170.667V426.667z
			 M213.333,288H42.667V181.333h170.667V288z M426.667,426.667H256v-96h170.667V426.667z M426.667,288H256V181.333h170.667V288z
			 M426.667,138.667h-384v-96h384V138.667z"/>
	</g>
</g>
<g>
</g>
<g>
</g>
<g>
</g>
<g>
</g>
<g>
</g>
<g>
</g>
<g>
</g>
<g>
</g>
<g>
</g>
<g>
</g>
<g>
</g>
<g>
</g>
<g>
</g>
<g>
</g>
<g>
</g>
</svg>
